<svg id="visual" viewBox="0 0 900 300" width="900" height="300" xmlns="http://www.w3.org/2000/svg" xmlns:xlink="http://www.w3.org/1999/xlink" version="1.1"><path d="M0 199L21.5 199.7C43 200.3 86 201.7 128.8 199.8C171.7 198 214.3 193 257.2 191C300 189 343 190 385.8 195.3C428.7 200.7 471.3 210.3 514.2 215.3C557 220.3 600 220.7 642.8 217.5C685.7 214.3 728.3 207.7 771.2 203.7C814 199.7 857 198.3 878.5 197.7L900 197L900 301L878.5 301C857 301 814 301 771.2 301C728.3 301 685.7 301 642.8 301C600 301 557 301 514.2 301C471.3 301 428.7 301 385.8 301C343 301 300 301 257.2 301C214.3 301 171.7 301 128.8 301C86 301 43 301 21.5 301L0 301Z" fill="#fa7268"></path><path d="M0 221L21.5 220.8C43 220.7 86 220.3 128.8 222.5C171.7 224.7 214.3 229.3 257.2 229.8C300 230.3 343 226.7 385.8 221.8C428.7 217 471.3 211 514.2 209.3C557 207.7 600 210.3 642.8 215.8C685.7 221.3 728.3 229.7 771.2 228.2C814 226.7 857 215.3 878.5 209.7L900 204L900 301L878.5 301C857 301 814 301 771.2 301C728.3 301 685.7 301 642.8 301C600 301 557 301 514.2 301C471.3 301 428.7 301 385.8 301C343 301 300 301 257.2 301C214.3 301 171.7 301 128.8 301C86 301 43 301 21.5 301L0 301Z" fill="#e85f52"></path><path d="M0 235L21.5 237.3C43 239.7 86 244.3 128.8 244.2C171.7 244 214.3 239 257.2 236.3C300 233.7 343 233.3 385.8 230.7C428.7 228 471.3 223 514.2 222.3C557 221.7 600 225.3 642.8 229.7C685.7 234 728.3 239 771.2 239.8C814 240.7 857 237.3 878.5 235.7L900 234L900 301L878.5 301C857 301 814 301 771.2 301C728.3 301 685.7 301 642.8 301C600 301 557 301 514.2 301C471.3 301 428.7 301 385.8 301C343 301 300 301 257.2 301C214.3 301 171.7 301 128.8 301C86 301 43 301 21.5 301L0 301Z" fill="#d54b3d"></path><path d="M0 253L21.5 253.3C43 253.7 86 254.3 128.8 254.5C171.7 254.7 214.3 254.3 257.2 255.3C300 256.3 343 258.7 385.8 260C428.7 261.3 471.3 261.7 514.2 259.7C557 257.7 600 253.3 642.8 250C685.7 246.7 728.3 244.3 771.2 247.2C814 250 857 258 878.5 262L900 266L900 301L878.5 301C857 301 814 301 771.2 301C728.3 301 685.7 301 642.8 301C600 301 557 301 514.2 301C471.3 301 428.7 301 385.8 301C343 301 300 301 257.2 301C214.3 301 171.7 301 128.8 301C86 301 43 301 21.5 301L0 301Z" fill="#c23728"></path><path d="M0 269L21.5 268C43 267 86 265 128.8 267.8C171.7 270.7 214.3 278.3 257.2 278.3C300 278.3 343 270.7 385.8 267.7C428.7 264.7 471.3 266.3 514.2 268.5C557 270.7 600 273.3 642.8 276C685.7 278.7 728.3 281.3 771.2 279.2C814 277 857 270 878.5 266.5L900 263L900 301L878.5 301C857 301 814 301 771.2 301C728.3 301 685.7 301 642.8 301C600 301 557 301 514.2 301C471.3 301 428.7 301 385.8 301C343 301 300 301 257.2 301C214.3 301 171.7 301 128.8 301C86 301 43 301 21.5 301L0 301Z" fill="#ae2012"></path></svg>