<svg id="visual" viewBox="0 0 900 150" width="900" height="150" xmlns="http://www.w3.org/2000/svg" xmlns:xlink="http://www.w3.org/1999/xlink" version="1.1"><path d="M0 85L21.5 80.7C43 76.3 86 67.7 128.8 65.8C171.7 64 214.3 69 257.2 75.2C300 81.3 343 88.7 385.8 86.8C428.7 85 471.3 74 514.2 74.7C557 75.3 600 87.7 642.8 86.7C685.7 85.7 728.3 71.3 771.2 69.8C814 68.3 857 79.7 878.5 85.3L900 91L900 151L878.5 151C857 151 814 151 771.2 151C728.3 151 685.7 151 642.8 151C600 151 557 151 514.2 151C471.3 151 428.7 151 385.8 151C343 151 300 151 257.2 151C214.3 151 171.7 151 128.8 151C86 151 43 151 21.5 151L0 151Z" fill="#b1a5fc"></path><path d="M0 76L21.5 81.3C43 86.7 86 97.3 128.8 103C171.7 108.7 214.3 109.3 257.2 109.7C300 110 343 110 385.8 108.5C428.7 107 471.3 104 514.2 98.7C557 93.3 600 85.7 642.8 83.7C685.7 81.7 728.3 85.3 771.2 84.8C814 84.3 857 79.7 878.5 77.3L900 75L900 151L878.5 151C857 151 814 151 771.2 151C728.3 151 685.7 151 642.8 151C600 151 557 151 514.2 151C471.3 151 428.7 151 385.8 151C343 151 300 151 257.2 151C214.3 151 171.7 151 128.8 151C86 151 43 151 21.5 151L0 151Z" fill="#9c87ff"></path><path d="M0 119L21.5 119C43 119 86 119 128.8 116C171.7 113 214.3 107 257.2 102.8C300 98.7 343 96.3 385.8 99.7C428.7 103 471.3 112 514.2 115.2C557 118.3 600 115.7 642.8 114.8C685.7 114 728.3 115 771.2 115.8C814 116.7 857 117.3 878.5 117.7L900 118L900 151L878.5 151C857 151 814 151 771.2 151C728.3 151 685.7 151 642.8 151C600 151 557 151 514.2 151C471.3 151 428.7 151 385.8 151C343 151 300 151 257.2 151C214.3 151 171.7 151 128.8 151C86 151 43 151 21.5 151L0 151Z" fill="#8968ff"></path><path d="M0 105L21.5 106.8C43 108.7 86 112.3 128.8 116.7C171.7 121 214.3 126 257.2 128.3C300 130.7 343 130.3 385.8 130.2C428.7 130 471.3 130 514.2 126.5C557 123 600 116 642.8 116C685.7 116 728.3 123 771.2 125.3C814 127.7 857 125.3 878.5 124.2L900 123L900 151L878.5 151C857 151 814 151 771.2 151C728.3 151 685.7 151 642.8 151C600 151 557 151 514.2 151C471.3 151 428.7 151 385.8 151C343 151 300 151 257.2 151C214.3 151 171.7 151 128.8 151C86 151 43 151 21.5 151L0 151Z" fill="#7745ff"></path><path d="M0 135L21.5 135.7C43 136.3 86 137.7 128.8 135.5C171.7 133.3 214.3 127.7 257.2 128.3C300 129 343 136 385.8 139.3C428.7 142.7 471.3 142.3 514.2 142C557 141.7 600 141.3 642.8 141.5C685.7 141.7 728.3 142.3 771.2 141.2C814 140 857 137 878.5 135.5L900 134L900 151L878.5 151C857 151 814 151 771.2 151C728.3 151 685.7 151 642.8 151C600 151 557 151 514.2 151C471.3 151 428.7 151 385.8 151C343 151 300 151 257.2 151C214.3 151 171.7 151 128.8 151C86 151 43 151 21.5 151L0 151Z" fill="#6600ff"></path></svg>