<svg id="visual" viewBox="0 0 900 150" width="900" height="150" xmlns="http://www.w3.org/2000/svg" xmlns:xlink="http://www.w3.org/1999/xlink" version="1.1"><path d="M0 93L21.5 94.3C43 95.7 86 98.3 128.8 97.8C171.7 97.3 214.3 93.7 257.2 91.5C300 89.3 343 88.7 385.8 90C428.7 91.3 471.3 94.7 514.2 96.5C557 98.3 600 98.7 642.8 99.3C685.7 100 728.3 101 771.2 99.5C814 98 857 94 878.5 92L900 90L900 151L878.5 151C857 151 814 151 771.2 151C728.3 151 685.7 151 642.8 151C600 151 557 151 514.2 151C471.3 151 428.7 151 385.8 151C343 151 300 151 257.2 151C214.3 151 171.7 151 128.8 151C86 151 43 151 21.5 151L0 151Z" fill="#ee9b00"></path><path d="M0 105L21.5 107C43 109 86 113 128.8 115C171.7 117 214.3 117 257.2 117C300 117 343 117 385.8 117C428.7 117 471.3 117 514.2 114.2C557 111.3 600 105.7 642.8 104.3C685.7 103 728.3 106 771.2 108.3C814 110.7 857 112.3 878.5 113.2L900 114L900 151L878.5 151C857 151 814 151 771.2 151C728.3 151 685.7 151 642.8 151C600 151 557 151 514.2 151C471.3 151 428.7 151 385.8 151C343 151 300 151 257.2 151C214.3 151 171.7 151 128.8 151C86 151 43 151 21.5 151L0 151Z" fill="#f88e2a"></path><path d="M0 119L21.5 118.5C43 118 86 117 128.8 116.3C171.7 115.7 214.3 115.3 257.2 115.2C300 115 343 115 385.8 116.7C428.7 118.3 471.3 121.7 514.2 122.5C557 123.3 600 121.7 642.8 120.3C685.7 119 728.3 118 771.2 118.2C814 118.3 857 119.7 878.5 120.3L900 121L900 151L878.5 151C857 151 814 151 771.2 151C728.3 151 685.7 151 642.8 151C600 151 557 151 514.2 151C471.3 151 428.7 151 385.8 151C343 151 300 151 257.2 151C214.3 151 171.7 151 128.8 151C86 151 43 151 21.5 151L0 151Z" fill="#fd8342"></path><path d="M0 127L21.5 127.2C43 127.3 86 127.7 128.8 128.3C171.7 129 214.3 130 257.2 130.5C300 131 343 131 385.8 129.3C428.7 127.7 471.3 124.3 514.2 123.5C557 122.7 600 124.3 642.8 124.8C685.7 125.3 728.3 124.7 771.2 126.2C814 127.7 857 131.3 878.5 133.2L900 135L900 151L878.5 151C857 151 814 151 771.2 151C728.3 151 685.7 151 642.8 151C600 151 557 151 514.2 151C471.3 151 428.7 151 385.8 151C343 151 300 151 257.2 151C214.3 151 171.7 151 128.8 151C86 151 43 151 21.5 151L0 151Z" fill="#fe7956"></path><path d="M0 138L21.5 136.8C43 135.7 86 133.3 128.8 132.3C171.7 131.3 214.3 131.7 257.2 133.2C300 134.7 343 137.3 385.8 138.3C428.7 139.3 471.3 138.7 514.2 137C557 135.3 600 132.7 642.8 133.2C685.7 133.7 728.3 137.3 771.2 138.5C814 139.7 857 138.3 878.5 137.7L900 137L900 151L878.5 151C857 151 814 151 771.2 151C728.3 151 685.7 151 642.8 151C600 151 557 151 514.2 151C471.3 151 428.7 151 385.8 151C343 151 300 151 257.2 151C214.3 151 171.7 151 128.8 151C86 151 43 151 21.5 151L0 151Z" fill="#fa7268"></path></svg>