<svg id="visual" viewBox="0 0 900 300" width="900" height="300" xmlns="http://www.w3.org/2000/svg" xmlns:xlink="http://www.w3.org/1999/xlink" version="1.1"><path d="M0 201L21.5 196.5C43 192 86 183 128.8 179.7C171.7 176.3 214.3 178.7 257.2 185.7C300 192.7 343 204.3 385.8 204.7C428.7 205 471.3 194 514.2 187.2C557 180.3 600 177.7 642.8 180.5C685.7 183.3 728.3 191.7 771.2 193.8C814 196 857 192 878.5 190L900 188L900 301L878.5 301C857 301 814 301 771.2 301C728.3 301 685.7 301 642.8 301C600 301 557 301 514.2 301C471.3 301 428.7 301 385.8 301C343 301 300 301 257.2 301C214.3 301 171.7 301 128.8 301C86 301 43 301 21.5 301L0 301Z" fill="#94d2bd"></path><path d="M0 234L21.5 229.3C43 224.7 86 215.3 128.8 212.8C171.7 210.3 214.3 214.7 257.2 218C300 221.3 343 223.7 385.8 225C428.7 226.3 471.3 226.7 514.2 227.5C557 228.3 600 229.7 642.8 231.5C685.7 233.3 728.3 235.7 771.2 234.2C814 232.7 857 227.3 878.5 224.7L900 222L900 301L878.5 301C857 301 814 301 771.2 301C728.3 301 685.7 301 642.8 301C600 301 557 301 514.2 301C471.3 301 428.7 301 385.8 301C343 301 300 301 257.2 301C214.3 301 171.7 301 128.8 301C86 301 43 301 21.5 301L0 301Z" fill="#6fb5ab"></path><path d="M0 227L21.5 225.8C43 224.7 86 222.3 128.8 221.7C171.7 221 214.3 222 257.2 223.3C300 224.7 343 226.3 385.8 231.5C428.7 236.7 471.3 245.3 514.2 245C557 244.7 600 235.3 642.8 229.7C685.7 224 728.3 222 771.2 222.7C814 223.3 857 226.7 878.5 228.3L900 230L900 301L878.5 301C857 301 814 301 771.2 301C728.3 301 685.7 301 642.8 301C600 301 557 301 514.2 301C471.3 301 428.7 301 385.8 301C343 301 300 301 257.2 301C214.3 301 171.7 301 128.8 301C86 301 43 301 21.5 301L0 301Z" fill="#4c9899"></path><path d="M0 249L21.5 251.2C43 253.3 86 257.7 128.8 259.5C171.7 261.3 214.3 260.7 257.2 257.7C300 254.7 343 249.3 385.8 249C428.7 248.7 471.3 253.3 514.2 255.5C557 257.7 600 257.3 642.8 254.5C685.7 251.7 728.3 246.3 771.2 245.5C814 244.7 857 248.3 878.5 250.2L900 252L900 301L878.5 301C857 301 814 301 771.2 301C728.3 301 685.7 301 642.8 301C600 301 557 301 514.2 301C471.3 301 428.7 301 385.8 301C343 301 300 301 257.2 301C214.3 301 171.7 301 128.8 301C86 301 43 301 21.5 301L0 301Z" fill="#2a7b87"></path><path d="M0 268L21.5 267.3C43 266.7 86 265.3 128.8 268.3C171.7 271.3 214.3 278.7 257.2 282.2C300 285.7 343 285.3 385.8 285.3C428.7 285.3 471.3 285.7 514.2 284.7C557 283.7 600 281.3 642.8 280.7C685.7 280 728.3 281 771.2 281C814 281 857 280 878.5 279.5L900 279L900 301L878.5 301C857 301 814 301 771.2 301C728.3 301 685.7 301 642.8 301C600 301 557 301 514.2 301C471.3 301 428.7 301 385.8 301C343 301 300 301 257.2 301C214.3 301 171.7 301 128.8 301C86 301 43 301 21.5 301L0 301Z" fill="#005f73"></path></svg>