<svg id="visual" viewBox="0 0 900 300" width="900" height="300" xmlns="http://www.w3.org/2000/svg" xmlns:xlink="http://www.w3.org/1999/xlink" version="1.1"><path d="M0 179L21.5 183.2C43 187.3 86 195.7 128.8 197.8C171.7 200 214.3 196 257.2 191.3C300 186.7 343 181.3 385.8 186.5C428.7 191.7 471.3 207.3 514.2 215C557 222.7 600 222.3 642.8 215.5C685.7 208.7 728.3 195.3 771.2 189.5C814 183.7 857 185.3 878.5 186.2L900 187L900 301L878.5 301C857 301 814 301 771.2 301C728.3 301 685.7 301 642.8 301C600 301 557 301 514.2 301C471.3 301 428.7 301 385.8 301C343 301 300 301 257.2 301C214.3 301 171.7 301 128.8 301C86 301 43 301 21.5 301L0 301Z" fill="#9b2226"></path><path d="M0 210L21.5 209C43 208 86 206 128.8 207.8C171.7 209.7 214.3 215.3 257.2 214.8C300 214.3 343 207.7 385.8 205.5C428.7 203.3 471.3 205.7 514.2 211.2C557 216.7 600 225.3 642.8 230.5C685.7 235.7 728.3 237.3 771.2 234.5C814 231.7 857 224.3 878.5 220.7L900 217L900 301L878.5 301C857 301 814 301 771.2 301C728.3 301 685.7 301 642.8 301C600 301 557 301 514.2 301C471.3 301 428.7 301 385.8 301C343 301 300 301 257.2 301C214.3 301 171.7 301 128.8 301C86 301 43 301 21.5 301L0 301Z" fill="#b63f24"></path><path d="M0 252L21.5 248.3C43 244.7 86 237.3 128.8 236.5C171.7 235.7 214.3 241.3 257.2 243.5C300 245.7 343 244.3 385.8 244.8C428.7 245.3 471.3 247.7 514.2 245.3C557 243 600 236 642.8 232.5C685.7 229 728.3 229 771.2 230.3C814 231.7 857 234.3 878.5 235.7L900 237L900 301L878.5 301C857 301 814 301 771.2 301C728.3 301 685.7 301 642.8 301C600 301 557 301 514.2 301C471.3 301 428.7 301 385.8 301C343 301 300 301 257.2 301C214.3 301 171.7 301 128.8 301C86 301 43 301 21.5 301L0 301Z" fill="#cd5c1e"></path><path d="M0 269L21.5 268.7C43 268.3 86 267.7 128.8 264.7C171.7 261.7 214.3 256.3 257.2 252.5C300 248.7 343 246.3 385.8 245.3C428.7 244.3 471.3 244.7 514.2 248.2C557 251.7 600 258.3 642.8 260.7C685.7 263 728.3 261 771.2 258.5C814 256 857 253 878.5 251.5L900 250L900 301L878.5 301C857 301 814 301 771.2 301C728.3 301 685.7 301 642.8 301C600 301 557 301 514.2 301C471.3 301 428.7 301 385.8 301C343 301 300 301 257.2 301C214.3 301 171.7 301 128.8 301C86 301 43 301 21.5 301L0 301Z" fill="#e07b13"></path><path d="M0 280L21.5 278.2C43 276.3 86 272.7 128.8 273.7C171.7 274.7 214.3 280.3 257.2 279.8C300 279.3 343 272.7 385.8 272C428.7 271.3 471.3 276.7 514.2 276C557 275.3 600 268.7 642.8 269.2C685.7 269.7 728.3 277.3 771.2 279C814 280.7 857 276.3 878.5 274.2L900 272L900 301L878.5 301C857 301 814 301 771.2 301C728.3 301 685.7 301 642.8 301C600 301 557 301 514.2 301C471.3 301 428.7 301 385.8 301C343 301 300 301 257.2 301C214.3 301 171.7 301 128.8 301C86 301 43 301 21.5 301L0 301Z" fill="#ee9b00"></path></svg>